<svg xmlns="http://www.w3.org/2000/svg" width="1600" height="1000" viewBox="0 0 1600 1000" fill="none">
  <g stroke="#95d5b2" stroke-opacity="0.18" stroke-width="2" stroke-linecap="round" stroke-linejoin="round">
    <path d="M0 220 C160 130 320 310 480 220 C640 130 800 310 960 220 C1120 130 1280 310 1440 220 C1520 176 1560 174 1600 190"/>
    <path d="M0 286 C160 196 320 376 480 286 C640 196 800 376 960 286 C1120 196 1280 376 1440 286 C1520 242 1560 240 1600 256"/>
    <path d="M0 352 C160 262 320 442 480 352 C640 262 800 442 960 352 C1120 262 1280 442 1440 352 C1520 308 1560 306 1600 322"/>

    <path d="M0 650 C160 560 320 740 480 650 C640 560 800 740 960 650 C1120 560 1280 740 1440 650 C1520 606 1560 604 1600 620"/>
    <path d="M0 716 C160 626 320 806 480 716 C640 626 800 806 960 716 C1120 626 1280 806 1440 716 C1520 672 1560 670 1600 686"/>

    <path d="M140 500 C160 448 224 444 250 494 C276 546 246 608 190 612 C132 616 90 558 104 500 C118 442 190 410 252 426"/>
    <path d="M648 486 C668 434 732 430 758 480 C784 532 754 594 698 598 C640 602 598 544 612 486 C626 428 698 396 760 412"/>
    <path d="M1150 500 C1170 448 1234 444 1260 494 C1286 546 1256 608 1200 612 C1142 616 1100 558 1114 500 C1128 442 1200 410 1262 426"/>
  </g>

  <g stroke="#d8c282" stroke-opacity="0.14" stroke-width="1.4" stroke-linecap="round" stroke-linejoin="round">
    <path d="M80 80 l40 -28 l40 28 l40 -28 l40 28 l40 -28 l40 28"/>
    <path d="M1260 84 l40 -28 l40 28 l40 -28 l40 28 l40 -28"/>
    <path d="M90 932 l40 -28 l40 28 l40 -28 l40 28 l40 -28 l40 28"/>
    <path d="M1240 936 l40 -28 l40 28 l40 -28 l40 28 l40 -28"/>
  </g>
</svg>
